<svg class="diagram-root" style="background: #f5f6f6" xmlns="http://www.w3.org/2000/svg" xmlns:xlink="http://www.w3.org/1999/xlink"><style>.diagram-root { font-family: "Helvetica Neue", sans-serif; font-size: 12px; } .t { overflow: visible; } .t-bg { y: 40; fill: #fff;   } .th { fill: #005aa0;   } .tht { fill: #fff; font-size: 14px;  } .tf { fill: #323c46; overflow: visible; } .tf.pk { fill: #005aa0; font-weight: bold; } .tf.fk { font-weight: bold; } .ty { fill: #adb1b5; font-weight: normal; text-anchor: end; } .r { fill: transparent; stroke: #c3c3c3; stroke-width: 1; } .l { stroke: 1; } .i { fill: #c2c7ce; stroke: #c2c7ce; } .i.ix { fill: #afb3b6; stroke: #000; } .fa { fill: transparent; overflow: visible; } .fa .bg.hover { fill: #f7f7f7; } .c { cy: 12; r: 4; stroke: #d2d2dc; fill: #d2d2dc; } .hr { fill: transparent; stroke: #323c46; stroke-opacity: 0.035; stroke-width: 13; } .dc { stroke: #fa5a3c; fill: #fa5a3c; } .x { stroke: white; stroke-width: 1; } .hl .th { fill: #1b9bff; } .hl .tht {  } .fhl .bg { fill: #e7f4ff; } .fhls .bg {  } .r.hl { stroke: #1b9bff; } .dim { opacity: 0.25; }</style><g class="drawing-wrapper" transform="translate(169.1428571428571, 89.99999999999973) scale(1,1)"><g class="rs"><path d="M 181.43 147 m -1, 0 a 1,1 0 1,0 2,0 a 1,1 0 1,0 -2,0 M 181.43 147 m -0.5, 0 a 0.5,0.5 0 1,0 1,0 a 0.5,0.5 0 1,0 -1,0  M181.43 147 L181.43 147 169.43 147 M175.43 153 L175.43 153 175.43 141 M169.43 147 Q 138.24 147, 107.05 159.15 T 44.67 171.29000000000002 M 32.67 171.29000000000002 m -1, 0 a 1,1 0 1,0 2,0 a 1,1 0 1,0 -2,0 M 32.67 171.29000000000002 m -0.5, 0 a 0.5,0.5 0 1,0 1,0 a 0.5,0.5 0 1,0 -1,0  M32.67 171.29000000000002 L32.67 171.29000000000002 44.67 171.29000000000002 M 32.67 177.29000000000002 m -1, 0 a 1,1 0 1,0 2,0 a 1,1 0 1,0 -2,0 M 32.67 177.29000000000002 m -0.5, 0 a 0.5,0.5 0 1,0 1,0 a 0.5,0.5 0 1,0 -1,0  M32.67 177.29000000000002 L32.67 177.29000000000002 39.67 171.29000000000002 32.67 165.29000000000002 M 32.67 165.29000000000002 m -1, 0 a 1,1 0 1,0 2,0 a 1,1 0 1,0 -2,0 M 32.67 165.29000000000002 m -0.5, 0 a 0.5,0.5 0 1,0 1,0 a 0.5,0.5 0 1,0 -1,0 " id="h2486924778" class="r"></path><path d="M 181.43 172 m -1, 0 a 1,1 0 1,0 2,0 a 1,1 0 1,0 -2,0 M 181.43 172 m -0.5, 0 a 0.5,0.5 0 1,0 1,0 a 0.5,0.5 0 1,0 -1,0  M181.43 172 L181.43 172 169.43 172 M175.43 178 L175.43 178 175.43 166 M169.43 172 Q 135.08 172, 100.73 87.36 T 32.03 2.710000000000001 M 20.03 2.710000000000001 m -1, 0 a 1,1 0 1,0 2,0 a 1,1 0 1,0 -2,0 M 20.03 2.710000000000001 m -0.5, 0 a 0.5,0.5 0 1,0 1,0 a 0.5,0.5 0 1,0 -1,0  M20.03 2.710000000000001 L20.03 2.710000000000001 32.03 2.710000000000001 M 20.03 8.71 m -1, 0 a 1,1 0 1,0 2,0 a 1,1 0 1,0 -2,0 M 20.03 8.71 m -0.5, 0 a 0.5,0.5 0 1,0 1,0 a 0.5,0.5 0 1,0 -1,0  M20.03 8.71 L20.03 8.71 27.03 2.710000000000001 20.03 -3.289999999999999 M 20.03 -3.289999999999999 m -1, 0 a 1,1 0 1,0 2,0 a 1,1 0 1,0 -2,0 M 20.03 -3.289999999999999 m -0.5, 0 a 0.5,0.5 0 1,0 1,0 a 0.5,0.5 0 1,0 -1,0 " id="h22174527" class="r"></path><path d="M 180.71 -3 m -1, 0 a 1,1 0 1,0 2,0 a 1,1 0 1,0 -2,0 M 180.71 -3 m -0.5, 0 a 0.5,0.5 0 1,0 1,0 a 0.5,0.5 0 1,0 -1,0  M180.71 -3 L180.71 -3 168.71 -3 M174.71 3 L174.71 3 174.71 -9 M168.71 -3 Q 134.54 -3, 100.37 -0.14 T 32.03 2.710000000000001 M 20.03 2.710000000000001 m -1, 0 a 1,1 0 1,0 2,0 a 1,1 0 1,0 -2,0 M 20.03 2.710000000000001 m -0.5, 0 a 0.5,0.5 0 1,0 1,0 a 0.5,0.5 0 1,0 -1,0  M20.03 2.710000000000001 L20.03 2.710000000000001 32.03 2.710000000000001 M 20.03 8.71 m -1, 0 a 1,1 0 1,0 2,0 a 1,1 0 1,0 -2,0 M 20.03 8.71 m -0.5, 0 a 0.5,0.5 0 1,0 1,0 a 0.5,0.5 0 1,0 -1,0  M20.03 8.71 L20.03 8.71 27.03 2.710000000000001 20.03 -3.289999999999999 M 20.03 -3.289999999999999 m -1, 0 a 1,1 0 1,0 2,0 a 1,1 0 1,0 -2,0 M 20.03 -3.289999999999999 m -0.5, 0 a 0.5,0.5 0 1,0 1,0 a 0.5,0.5 0 1,0 -1,0 " id="h1757665889" class="r"></path><path d="M 180.71 22 m -1, 0 a 1,1 0 1,0 2,0 a 1,1 0 1,0 -2,0 M 180.71 22 m -0.5, 0 a 0.5,0.5 0 1,0 1,0 a 0.5,0.5 0 1,0 -1,0  M180.71 22 L180.71 22 168.71 22 M174.71 28 L174.71 28 174.71 16 M168.71 22 Q 137.7 22, 106.69 96.65 T 44.67 171.29000000000002 M 32.67 171.29000000000002 m -1, 0 a 1,1 0 1,0 2,0 a 1,1 0 1,0 -2,0 M 32.67 171.29000000000002 m -0.5, 0 a 0.5,0.5 0 1,0 1,0 a 0.5,0.5 0 1,0 -1,0  M32.67 171.29000000000002 L32.67 171.29000000000002 44.67 171.29000000000002 M 32.67 177.29000000000002 m -1, 0 a 1,1 0 1,0 2,0 a 1,1 0 1,0 -2,0 M 32.67 177.29000000000002 m -0.5, 0 a 0.5,0.5 0 1,0 1,0 a 0.5,0.5 0 1,0 -1,0  M32.67 177.29000000000002 L32.67 177.29000000000002 39.67 171.29000000000002 32.67 165.29000000000002 M 32.67 165.29000000000002 m -1, 0 a 1,1 0 1,0 2,0 a 1,1 0 1,0 -2,0 M 32.67 165.29000000000002 m -0.5, 0 a 0.5,0.5 0 1,0 1,0 a 0.5,0.5 0 1,0 -1,0 " id="h1672048976" class="r"></path><path d="M 200 317 m -1, 0 a 1,1 0 1,0 2,0 a 1,1 0 1,0 -2,0 M 200 317 m -0.5, 0 a 0.5,0.5 0 1,0 1,0 a 0.5,0.5 0 1,0 -1,0  M200 317 L200 317 188 317 M194 323 L194 323 194 311 M188 317 Q 152.17 317, 116.34 244.15 T 44.67 171.29000000000002 M 32.67 171.29000000000002 m -1, 0 a 1,1 0 1,0 2,0 a 1,1 0 1,0 -2,0 M 32.67 171.29000000000002 m -0.5, 0 a 0.5,0.5 0 1,0 1,0 a 0.5,0.5 0 1,0 -1,0  M32.67 171.29000000000002 L32.67 171.29000000000002 44.67 171.29000000000002 M 32.67 177.29000000000002 m -1, 0 a 1,1 0 1,0 2,0 a 1,1 0 1,0 -2,0 M 32.67 177.29000000000002 m -0.5, 0 a 0.5,0.5 0 1,0 1,0 a 0.5,0.5 0 1,0 -1,0  M32.67 177.29000000000002 L32.67 177.29000000000002 39.67 171.29000000000002 32.67 165.29000000000002 M 32.67 165.29000000000002 m -1, 0 a 1,1 0 1,0 2,0 a 1,1 0 1,0 -2,0 M 32.67 165.29000000000002 m -0.5, 0 a 0.5,0.5 0 1,0 1,0 a 0.5,0.5 0 1,0 -1,0 " id="h3177548053" class="r"></path><path d="M 179.29 479.86 m -1, 0 a 1,1 0 1,0 2,0 a 1,1 0 1,0 -2,0 M 179.29 479.86 m -0.5, 0 a 0.5,0.5 0 1,0 1,0 a 0.5,0.5 0 1,0 -1,0  M179.29 479.86 L179.29 479.86 167.29 479.86 M173.29 485.86 L173.29 485.86 173.29 473.86 M167.29 479.86 Q 136.64 479.86, 105.98 325.58 T 44.67 171.29000000000002 M 32.67 171.29000000000002 m -1, 0 a 1,1 0 1,0 2,0 a 1,1 0 1,0 -2,0 M 32.67 171.29000000000002 m -0.5, 0 a 0.5,0.5 0 1,0 1,0 a 0.5,0.5 0 1,0 -1,0  M32.67 171.29000000000002 L32.67 171.29000000000002 44.67 171.29000000000002 M 32.67 177.29000000000002 m -1, 0 a 1,1 0 1,0 2,0 a 1,1 0 1,0 -2,0 M 32.67 177.29000000000002 m -0.5, 0 a 0.5,0.5 0 1,0 1,0 a 0.5,0.5 0 1,0 -1,0  M32.67 177.29000000000002 L32.67 177.29000000000002 39.67 171.29000000000002 32.67 165.29000000000002 M 32.67 165.29000000000002 m -1, 0 a 1,1 0 1,0 2,0 a 1,1 0 1,0 -2,0 M 32.67 165.29000000000002 m -0.5, 0 a 0.5,0.5 0 1,0 1,0 a 0.5,0.5 0 1,0 -1,0 " id="h3000826536" class="r"></path></g><g class="hrs"></g><g class="ts"><svg width="167.17" height="100" x="-147.14" y="-54.29" id="h475896179" class="t"><rect height="40" width="167.17" class="th"></rect><text x="13" y="25" class="tht">departments</text><rect height="60" width="167.17" class="t-bg"></rect><text x="13" y="61" class="tf pk">dept_no<tspan x="154.17" class="ty">VARCHAR</tspan></text><path d="M7,14A2,2 0 0,1 5,12A2,2 0 0,1 7,10A2,2 0 0,1 9,12A2,2 0 0,1 7,14M12.65,10C11.83,7.67 9.61,6 7, 6A6, 6 0 0, 0 1, 12A6, 6 0 0, 0 7, 18C9.61, 18 11.83, 16.33 12.65, 14H17V18H21V14H23V10H12.65Z" class="i pk" transform="translate(76.37898437499999, 48) scale(0.65)"></path><text x="13" y="86" class="tf">dept_name</text></svg><svg width="174.81" height="225" x="-142.14" y="114.29" id="h1639608377" class="t"><rect height="40" width="174.81" class="th"></rect><text x="13" y="25" class="tht">employees</text><rect height="185" width="174.81" class="t-bg"></rect><text x="13" y="61" class="tf pk">emp_no<tspan x="161.81" class="ty">INT</tspan></text><path d="M7,14A2,2 0 0,1 5,12A2,2 0 0,1 7,10A2,2 0 0,1 9,12A2,2 0 0,1 7,14M12.65,10C11.83,7.67 9.61,6 7, 6A6, 6 0 0, 0 1, 12A6, 6 0 0, 0 7, 18C9.61, 18 11.83, 16.33 12.65, 14H17V18H21V14H23V10H12.65Z" class="i pk" transform="translate(122.479921875, 48) scale(0.65)"></path><text x="13" y="86" class="tf">emp_title_id<tspan x="161.81" class="ty">VARCHAR</tspan></text><text x="13" y="111" class="tf">birth_date<tspan x="161.81" class="ty">DATE</tspan></text><text x="13" y="136" class="tf">first_name<tspan x="161.81" class="ty">VARCHAR</tspan></text><path d="M814.545 581.818v-23.273H535.273v-93.09h-46.546v93.09H209.455v139.637H256V605.09h232.727v93.09h46.546v-93.09H768v93.09h46.545V581.819zM674.91 465.455H349.091V139.636h325.818v325.819zM325.82 884.364H139.635V698.182h186.182v186.182z m279.272 0H418.909V698.182h186.182v186.182z m279.273 0H698.182V698.182h186.182v186.182zM395.636 418.909h232.728V186.182H395.636v232.727zM186.182 837.82h93.09v-93.092h-93.09v93.091z m279.273 0h93.09v-93.092h-93.09v93.091z m279.272 0h93.091v-93.092h-93.09v93.091z" class="i ix" transform="translate(89.018984375, 125) scale(0.014)"></path><text x="13" y="161" class="tf">last_name<tspan x="161.81" class="ty">VARCHAR</tspan></text><path d="M814.545 581.818v-23.273H535.273v-93.09h-46.546v93.09H209.455v139.637H256V605.09h232.727v93.09h46.546v-93.09H768v93.09h46.545V581.819zM674.91 465.455H349.091V139.636h325.818v325.819zM325.82 884.364H139.635V698.182h186.182v186.182z m279.272 0H418.909V698.182h186.182v186.182z m279.273 0H698.182V698.182h186.182v186.182zM395.636 418.909h232.728V186.182H395.636v232.727zM186.182 837.82h93.09v-93.092h-93.09v93.091z m279.273 0h93.09v-93.092h-93.09v93.091z m279.272 0h93.091v-93.092h-93.09v93.091z" class="i ix" transform="translate(89.018984375, 150) scale(0.014)"></path><text x="13" y="186" class="tf">sex<tspan x="161.81" class="ty">VARCHAR</tspan></text><text x="13" y="211" class="tf">hire_date<tspan x="161.81" class="ty">DATE</tspan></text></svg><svg width="167.17" height="100" x="181.43" y="90" id="h2282313888" class="t"><rect height="40" width="167.17" class="th"></rect><text x="13" y="25" class="tht">department_employee</text><rect height="60" width="167.17" class="t-bg"></rect><text x="13" y="61" class="tf pk">emp_no<tspan x="154.17" class="ty">INT</tspan></text><path d="M7,14A2,2 0 0,1 5,12A2,2 0 0,1 7,10A2,2 0 0,1 9,12A2,2 0 0,1 7,14M12.65,10C11.83,7.67 9.61,6 7, 6A6, 6 0 0, 0 1, 12A6, 6 0 0, 0 7, 18C9.61, 18 11.83, 16.33 12.65, 14H17V18H21V14H23V10H12.65Z" class="i pk" transform="translate(114.83992187499999, 48) scale(0.65)"></path><text x="13" y="86" class="tf pk">dept_no<tspan x="154.17" class="ty">VARCHAR</tspan></text><path d="M7,14A2,2 0 0,1 5,12A2,2 0 0,1 7,10A2,2 0 0,1 9,12A2,2 0 0,1 7,14M12.65,10C11.83,7.67 9.61,6 7, 6A6, 6 0 0, 0 1, 12A6, 6 0 0, 0 7, 18C9.61, 18 11.83, 16.33 12.65, 14H17V18H21V14H23V10H12.65Z" class="i pk" transform="translate(76.37898437499999, 73) scale(0.65)"></path></svg><svg width="167.17" height="100" x="180.71" y="-60" id="h2392569220" class="t"><rect height="40" width="167.17" class="th"></rect><text x="13" y="25" class="tht">department_manager</text><rect height="60" width="167.17" class="t-bg"></rect><text x="13" y="61" class="tf pk">dept_no<tspan x="154.17" class="ty">VARCHAR</tspan></text><path d="M7,14A2,2 0 0,1 5,12A2,2 0 0,1 7,10A2,2 0 0,1 9,12A2,2 0 0,1 7,14M12.65,10C11.83,7.67 9.61,6 7, 6A6, 6 0 0, 0 1, 12A6, 6 0 0, 0 7, 18C9.61, 18 11.83, 16.33 12.65, 14H17V18H21V14H23V10H12.65Z" class="i pk" transform="translate(76.37898437499999, 48) scale(0.65)"></path><text x="13" y="86" class="tf pk">emp_no<tspan x="154.17" class="ty">VARCHAR</tspan></text><path d="M7,14A2,2 0 0,1 5,12A2,2 0 0,1 7,10A2,2 0 0,1 9,12A2,2 0 0,1 7,14M12.65,10C11.83,7.67 9.61,6 7, 6A6, 6 0 0, 0 1, 12A6, 6 0 0, 0 7, 18C9.61, 18 11.83, 16.33 12.65, 14H17V18H21V14H23V10H12.65Z" class="i pk" transform="translate(76.37898437499999, 73) scale(0.65)"></path></svg><svg width="108.7" height="100" x="200" y="260" id="h2472833127" class="t"><rect height="40" width="108.7" class="th"></rect><text x="13" y="25" class="tht">salaries</text><rect height="60" width="108.7" class="t-bg"></rect><text x="13" y="61" class="tf fk">emp_no<tspan x="95.7" class="ty">INT</tspan></text><text x="13" y="86" class="tf">salary<tspan x="95.7" class="ty">INT</tspan></text></svg><svg width="158.48" height="125" x="179.29" y="422.86" id="h311790747" class="t"><rect height="40" width="158.48" class="th"></rect><text x="13" y="25" class="tht">titles</text><rect height="85" width="158.48" class="t-bg"></rect><text x="13" y="61" class="tf fk">emp_no<tspan x="145.48" class="ty">INT</tspan></text><text x="13" y="86" class="tf pk">title_id<tspan x="145.48" class="ty">VARCHAR</tspan></text><path d="M7,14A2,2 0 0,1 5,12A2,2 0 0,1 7,10A2,2 0 0,1 9,12A2,2 0 0,1 7,14M12.65,10C11.83,7.67 9.61,6 7, 6A6, 6 0 0, 0 1, 12A6, 6 0 0, 0 7, 18C9.61, 18 11.83, 16.33 12.65, 14H17V18H21V14H23V10H12.65Z" class="i pk" transform="translate(67.68898437499999, 73) scale(0.65)"></path><text x="13" y="111" class="tf">title<tspan x="145.48" class="ty">VARCHAR</tspan></text><path d="M814.545 581.818v-23.273H535.273v-93.09h-46.546v93.09H209.455v139.637H256V605.09h232.727v93.09h46.546v-93.09H768v93.09h46.545V581.819zM674.91 465.455H349.091V139.636h325.818v325.819zM325.82 884.364H139.635V698.182h186.182v186.182z m279.272 0H418.909V698.182h186.182v186.182z m279.273 0H698.182V698.182h186.182v186.182zM395.636 418.909h232.728V186.182H395.636v232.727zM186.182 837.82h93.09v-93.092h-93.09v93.091z m279.273 0h93.09v-93.092h-93.09v93.091z m279.272 0h93.091v-93.092h-93.09v93.091z" class="i ix" transform="translate(72.68898437499999, 100) scale(0.014)"></path></svg></g></g><text class="qdbd-link" x="10" y="20">www.quickdatabasediagrams.com</text></svg>